<?xml version="1.0" encoding="UTF-8"?>
<svg version="1.1" id="Ebene_1" xmlns="http://www.w3.org/2000/svg" xmlns:xlink="http://www.w3.org/1999/xlink" x="0px" y="0px" viewBox="0 0 68 68" style="enable-background:new 0 0 68 68;" xml:space="preserve">
<style type="text/css">
	.st0{fill-rule:evenodd;clip-rule:evenodd;}
	.st1{fill:#FFFFFF;}
</style>
<polygon class="st0" points="0,0 68,0 68,68 0,68 0,0  "/>
<path class="st1" d="M19.1,40.3c0,0-6.1,0-6.2,0v-4.5c0.1,0,6,0,6,0v-1.3c0,0-5.9,0-6,0v-4.4c0.1,0,6.2,0,6.2,0v-1.3h-7.7v12.6h7.7   V40.3z M17.9,49.7c1-0.7,1.4-1.5,1.4-2.5c0-1.1-0.6-2.1-1.6-2.7c-1-0.6-2.1-0.6-3.1-0.6h-3.2v12.6h3.2l0.3,0c1.3,0,2.4,0,3.5-0.7   c1-0.6,1.7-1.8,1.7-2.9C20.1,51.4,19.3,50.3,17.9,49.7z M12.9,45.1c0.1,0,1.5,0,1.5,0c0.8,0,1.7,0,2.4,0.4c0.6,0.3,1,1,1,1.7   c0,0.7-0.4,1.4-1.1,1.7c-0.7,0.4-1.6,0.4-2.4,0.4c0,0-1.4,0-1.5,0V45.1z M17.3,54.8c-0.8,0.4-1.8,0.4-2.8,0.4c0,0-1.5,0-1.6,0v-4.7   c0.1,0,1.5,0,1.5,0c0.9,0,1.8,0,2.5,0.3c1,0.3,1.7,1.2,1.6,2.2C18.6,53.6,18.1,54.5,17.3,54.8z M47.9,36.6c0-0.8,0-1.6,0.4-2.2   c0.5-0.7,1.4-1.1,2.2-1.1c0.9,0,1.8,0.4,2.3,1.1c0.4,0.6,0.5,1.3,0.5,2.2v4.9h1.4v-4.9c0-1.1-0.1-2.2-1-3.2   c-0.8-0.9-1.9-1.4-3.1-1.4c-1.1,0-2.2,0.6-2.7,1.4c0-0.4,0-4.4,0-4.4h-1.4v12.6h1.4V36.6z M40.7,41.8c2,0,3.6-1.1,4.5-3l0-0.1h-1.5   l0,0c-0.8,1.2-1.8,1.7-3.1,1.7c-2,0-3.5-1.6-3.5-3.6c0-2,1.6-3.5,3.6-3.5c1.2,0,2.4,0.7,3,1.8l0,0h1.5l0-0.1c-0.7-1.8-2.5-3-4.6-3   c-2.7,0-5,2.2-5,4.9C35.6,39.6,37.8,41.8,40.7,41.8z M59.2,52.2c0-1.4-0.2-2.4-1.1-3.5c-0.9-1.1-2.3-1.8-3.7-1.8   c-2.7,0-4.8,2.1-4.8,4.9c0,2.7,2.1,4.9,4.8,4.9c1.9,0,3.8-1.4,4.5-3.3l0-0.1h-1.4l0,0c-0.5,1.2-1.8,2-3.2,2c-1.7,0-3.3-1.5-3.4-3.1   C51.1,52.3,59.2,52.3,59.2,52.2L59.2,52.2z M51,51c0.3-1.6,1.8-2.8,3.4-2.8c1.6,0,3,1.2,3.4,2.8H51z M61.4,41.6c0,0,0-4,0-4.1   c0.1,0,3.9,0,3.9,0V36c0,0-3.7,0-3.9,0c0-0.1,0-3.9,0-3.9H60c0,0,0,3.8,0,3.9c-0.1,0-3.9,0-3.9,0v1.4c0,0,3.7,0,3.9,0   c0,0.1,0,4.1,0,4.1H61.4z M67.8,51c0-1.8-0.5-2.3-0.9-2.8c-0.7-0.8-1.7-1.2-3-1.2c-1,0-1.9,0.5-2.4,1.2c0-0.3,0-1,0-1h-1.3v9.4h1.3   v-5.4c0-0.7,0-1.4,0.4-1.9c0.4-0.6,1.1-0.9,1.9-0.9c0.8,0,1.5,0.4,2,1.1c0.3,0.5,0.4,1,0.4,1.6H67.8z M38.9,51   c0-1.8-0.5-2.3-0.9-2.8c-0.7-0.8-1.7-1.2-3-1.2c-1,0-1.9,0.5-2.4,1.2c0-0.3,0-1,0-1h-1.3v9.4h1.3v-5.4c0-0.7,0-1.4,0.4-1.9   c0.4-0.6,1.1-0.9,1.9-0.9c0.8,0,1.5,0.4,2,1.1c0.3,0.5,0.4,1,0.4,1.6H38.9z M22,36.2c0-0.7,0-1.4,0.4-1.9c0.4-0.6,1.2-0.9,1.9-0.9   c0.8,0,1.5,0.4,2,1.1c0.4,0.6,0.4,1.1,0.4,1.8v5.4h1.4v-5.3c0-0.7,0-1.4,0.4-1.9c0.4-0.6,1.2-1,2-1c0.8,0,1.5,0.4,2,1.1   c0.4,0.6,0.4,1.3,0.4,2v5.2h1.4v-5.3c0-1.2-0.1-2.1-0.9-2.8c-0.9-0.9-1.9-1.4-2.9-1.4c-1.1,0-2.3,0.6-2.9,1.4c0,0-0.1,0.2-0.1,0.2   s0,0.1-0.1,0.1c0,0-0.2-0.3-0.2-0.3c-0.8-0.9-1.8-1.4-3-1.4c-1,0-1.9,0.5-2.4,1.3c0-0.3,0-1.1,0-1.1h-1.3v9.4H22V36.2z M47.4,48.7   c-0.7-1.1-2-1.8-3.6-1.8c-1.5,0-2.8,0.7-3.8,2c-0.4,0.4-0.9,1.6-0.9,2.9c0,1.4,0.5,2.6,1.5,3.5c0.9,0.9,2.1,1.4,3.3,1.4   c1.2,0,2.8-0.5,3.5-1.9c0,0.1,0,0.3,0,0.3c0,0.8,0,1.4-0.4,2.1c-0.5,1-1.7,1.6-2.9,1.6c-1.5,0-2.6-0.7-3.3-2.2l0,0h-1.3l0,0.1   c0.5,2,2.3,3.5,4.4,3.5c1.4,0,2.9-0.6,3.8-1.5c1-1.1,1.1-2.1,1.1-3.5v-8h-1.3C47.4,47.1,47.4,48.4,47.4,48.7z M46.4,54.3   c-0.6,0.7-1.4,1-2.4,1c-2,0-3.4-1.6-3.4-3.7c0-1.9,1.5-3.5,3.3-3.5c2,0,3.6,1.5,3.6,3.6C47.4,52.7,47,53.7,46.4,54.3z M30.5,52.2   c0-1.4-0.2-2.4-1.1-3.5c-0.9-1.1-2.3-1.8-3.7-1.8c-2.7,0-4.8,2.1-4.8,4.9c0,2.7,2.1,4.9,4.8,4.9c2,0,3.8-1.4,4.5-3.3l0-0.1h-1.4   l0,0c-0.5,1.2-1.8,2-3.2,2c-1.7,0-3.2-1.5-3.4-3.1C22.4,52.3,30.5,52.3,30.5,52.2L30.5,52.2z M22.3,51c0.3-1.6,1.8-2.8,3.4-2.8   c1.6,0,3,1.2,3.4,2.8H22.3z"/>
</svg>
